<svg width="18" height="19" viewBox="0 0 18 19" fill="none" xmlns="http://www.w3.org/2000/svg">
<path d="M17.3606 12.2862C16.9265 14.1571 15.873 15.8264 14.371 17.0234C12.869 18.2203 11.0066 18.8745 9.08607 18.88C8.43455 18.8797 7.7852 18.805 7.15063 18.6574C5.42208 18.2567 3.86184 17.3262 2.68789 15.9956C1.51395 14.6651 0.784931 13.0011 0.60269 11.2361C0.58898 11.0997 0.630023 10.9635 0.716789 10.8573C0.803555 10.7511 0.928938 10.6838 1.06535 10.6701C1.20177 10.6564 1.33805 10.6974 1.4442 10.7842C1.55036 10.871 1.6177 10.9963 1.63141 11.1328C1.76184 12.3951 2.21138 13.6035 2.93771 14.6442C3.66404 15.6849 4.64326 16.5237 5.78319 17.0815C6.92312 17.6393 8.18625 17.8978 9.45368 17.8328C10.7211 17.7677 11.9511 17.3812 13.0279 16.7095C14.7101 15.6598 15.9063 13.9849 16.3535 12.0532C16.8008 10.1215 16.4623 8.09125 15.4126 6.4091C14.3629 4.72696 12.688 3.5307 10.7562 3.08349C8.82454 2.63628 6.7943 2.97475 5.11216 4.02445L3.98108 4.73059L6.40348 4.977C6.53509 4.99064 6.65646 5.05422 6.7426 5.15466C6.82874 5.2551 6.87308 5.38475 6.8665 5.5169C6.85992 5.64905 6.80291 5.77365 6.70722 5.86504C6.61153 5.95642 6.48444 6.00763 6.35213 6.00813C6.33451 6.00825 6.31691 6.00733 6.2994 6.00537L2.37339 5.60733C2.36374 5.60733 2.35478 5.60319 2.34513 5.60181C2.32609 5.59893 2.30723 5.59502 2.28861 5.59009C2.27724 5.58699 2.26587 5.58355 2.25415 5.57976C2.25139 5.57976 2.24864 5.57976 2.24588 5.57976C2.24312 5.57976 2.23657 5.57493 2.23175 5.57286C2.21915 5.56794 2.20684 5.5623 2.19487 5.55598C2.18454 5.55115 2.17454 5.54598 2.16455 5.54012L2.14249 5.5222C2.13215 5.51531 2.12216 5.50773 2.11216 5.4998C2.10217 5.49188 2.09459 5.48636 2.08632 5.47912C2.07805 5.47189 2.07046 5.46499 2.06323 5.45741C2.05599 5.44983 2.04772 5.44087 2.04014 5.43225C2.03255 5.42364 2.02532 5.41537 2.01842 5.40641C2.01153 5.39745 2.00429 5.38745 1.99775 5.37746C1.99499 5.37332 1.9912 5.36988 1.98844 5.3654C1.98569 5.36092 1.98396 5.3554 1.9812 5.35092C1.97845 5.34644 1.97052 5.33197 1.96535 5.32197C1.96018 5.31198 1.95501 5.29957 1.95053 5.28751C1.94605 5.27545 1.94192 5.26718 1.93847 5.25684C1.93502 5.2465 1.93227 5.23823 1.92986 5.22858C1.92744 5.21893 1.924 5.20445 1.92158 5.19239C1.91917 5.18033 1.91676 5.1693 1.91538 5.15793C1.914 5.14656 1.91331 5.14001 1.91262 5.1307C1.91193 5.1214 1.91262 5.10589 1.91262 5.09314C1.91262 5.08039 1.91262 5.06798 1.91262 5.05523C1.91262 5.04972 1.91262 5.04455 1.91262 5.03903C1.91262 5.03352 1.91262 5.0318 1.91504 5.028C1.91504 5.01698 1.91848 5.0056 1.92055 4.99354C1.92262 4.98148 1.92641 4.96666 1.9302 4.95357C1.93399 4.94047 1.93537 4.93461 1.93847 4.92565C1.94157 4.91669 1.94019 4.91635 1.94192 4.91186L3.30699 1.2109C3.35587 1.08419 3.45264 0.981809 3.5764 0.925879C3.70015 0.869949 3.84095 0.864965 3.96835 0.912005C4.09575 0.959044 4.19952 1.05433 4.25723 1.17726C4.31495 1.30019 4.32197 1.4409 4.27678 1.56897L3.43381 3.85351L4.56488 3.14771C5.99272 2.25657 7.65276 1.80887 9.33505 1.86123C11.0173 1.91358 12.6463 2.46363 14.016 3.44183C15.3857 4.42002 16.4345 5.78242 17.0298 7.35672C17.6252 8.93102 17.7403 10.6465 17.3606 12.2862ZM5.72663 14.4012L9.40071 10.7289C9.44871 10.6808 9.48677 10.6238 9.51273 10.5611C9.53869 10.4983 9.55204 10.4311 9.552 10.3632V6.60675C9.552 6.46965 9.49754 6.33816 9.4006 6.24121C9.30365 6.14427 9.17216 6.08981 9.03506 6.08981C8.89796 6.08981 8.76647 6.14427 8.66953 6.24121C8.57258 6.33816 8.51812 6.46965 8.51812 6.60675V10.1492L4.99705 13.6716C4.91026 13.7703 4.86428 13.8983 4.86848 14.0296C4.87267 14.1609 4.92671 14.2857 5.01962 14.3786C5.11253 14.4715 5.23733 14.5256 5.36866 14.5298C5.49999 14.534 5.62798 14.488 5.72663 14.4012Z" fill="white"/>
</svg>
