<svg width="18" height="19" viewBox="0 0 18 19" fill="none" xmlns="http://www.w3.org/2000/svg">
<path d="M17.3605 12.2862C16.9264 14.1571 15.8729 15.8264 14.3709 17.0234C12.8689 18.2203 11.0065 18.8745 9.08594 18.88C8.43443 18.8797 7.78508 18.805 7.15051 18.6574C5.42196 18.2567 3.86172 17.3262 2.68777 15.9956C1.51382 14.6651 0.784808 13.0011 0.602568 11.2361C0.588858 11.0997 0.629901 10.9635 0.716667 10.8573C0.803433 10.7511 0.928816 10.6838 1.06523 10.6701C1.20165 10.6564 1.33792 10.6974 1.44408 10.7842C1.55023 10.871 1.61757 10.9963 1.63128 11.1328C1.76172 12.3951 2.21126 13.6035 2.93759 14.6442C3.66392 15.6849 4.64314 16.5237 5.78307 17.0815C6.923 17.6393 8.18613 17.8978 9.45356 17.8328C10.721 17.7677 11.951 17.3812 13.0278 16.7095C14.71 15.6598 15.9062 13.9849 16.3534 12.0532C16.8006 10.1215 16.4622 8.09125 15.4125 6.4091C14.3628 4.72696 12.6878 3.5307 10.7561 3.08349C8.82442 2.63628 6.79418 2.97475 5.11203 4.02445L3.98096 4.73059L6.40336 4.977C6.53497 4.99064 6.65634 5.05422 6.74248 5.15466C6.82861 5.2551 6.87296 5.38475 6.86638 5.5169C6.8598 5.64905 6.80279 5.77365 6.7071 5.86504C6.61141 5.95642 6.48432 6.00763 6.35201 6.00813C6.33439 6.00825 6.31679 6.00733 6.29928 6.00537L2.37327 5.60733C2.36362 5.60733 2.35466 5.60319 2.34501 5.60181C2.32597 5.59893 2.3071 5.59502 2.28849 5.59009C2.27712 5.58699 2.26575 5.58355 2.25403 5.57976C2.25127 5.57976 2.24851 5.57976 2.24576 5.57976C2.243 5.57976 2.23645 5.57493 2.23163 5.57286C2.21903 5.56794 2.20671 5.5623 2.19475 5.55598C2.18441 5.55115 2.17442 5.54598 2.16443 5.54012L2.14237 5.5222C2.13203 5.51531 2.12204 5.50773 2.11204 5.4998C2.10205 5.49188 2.09447 5.48636 2.08619 5.47912C2.07792 5.47189 2.07034 5.46499 2.0631 5.45741C2.05587 5.44983 2.0476 5.44087 2.04001 5.43225C2.03243 5.42364 2.0252 5.41537 2.0183 5.40641C2.01141 5.39745 2.00417 5.38745 1.99762 5.37746C1.99487 5.37332 1.99108 5.36988 1.98832 5.3654C1.98556 5.36092 1.98384 5.3554 1.98108 5.35092C1.97833 5.34644 1.9704 5.33197 1.96523 5.32197C1.96006 5.31198 1.95489 5.29957 1.95041 5.28751C1.94593 5.27545 1.9418 5.26718 1.93835 5.25684C1.9349 5.2465 1.93215 5.23823 1.92973 5.22858C1.92732 5.21893 1.92387 5.20445 1.92146 5.19239C1.91905 5.18033 1.91664 5.1693 1.91526 5.15793C1.91388 5.14656 1.91319 5.14001 1.9125 5.1307C1.91181 5.1214 1.9125 5.10589 1.9125 5.09314C1.9125 5.08039 1.9125 5.06798 1.9125 5.05523C1.9125 5.04972 1.9125 5.04455 1.9125 5.03903C1.9125 5.03352 1.9125 5.0318 1.91491 5.028C1.91491 5.01698 1.91836 5.0056 1.92043 4.99354C1.9225 4.98148 1.92629 4.96666 1.93008 4.95357C1.93387 4.94047 1.93525 4.93461 1.93835 4.92565C1.94145 4.91669 1.94007 4.91635 1.9418 4.91186L3.30687 1.2109C3.35575 1.08419 3.45252 0.981809 3.57628 0.925879C3.70003 0.869949 3.84082 0.864965 3.96822 0.912005C4.09562 0.959044 4.1994 1.05433 4.25711 1.17726C4.31482 1.30019 4.32185 1.4409 4.27665 1.56897L3.43369 3.85351L4.56476 3.14771C5.9926 2.25657 7.65263 1.80887 9.33493 1.86123C11.0172 1.91358 12.6462 2.46363 14.0159 3.44183C15.3855 4.42002 16.4344 5.78242 17.0297 7.35672C17.625 8.93101 17.7401 10.6465 17.3605 12.2862V12.2862ZM5.72651 14.4012L9.40059 10.7289C9.44859 10.6808 9.48665 10.6238 9.51261 10.5611C9.53857 10.4983 9.55191 10.4311 9.55188 10.3632V6.60675C9.55188 6.46965 9.49742 6.33816 9.40047 6.24121C9.30353 6.14427 9.17204 6.08981 9.03494 6.08981C8.89784 6.08981 8.76635 6.14427 8.66941 6.24121C8.57246 6.33816 8.518 6.46965 8.518 6.60675V10.1492L4.99693 13.6716C4.91013 13.7703 4.86416 13.8983 4.86835 14.0296C4.87255 14.1609 4.92659 14.2857 5.0195 14.3786C5.11241 14.4715 5.23721 14.5256 5.36854 14.5298C5.49986 14.534 5.62786 14.488 5.72651 14.4012Z" fill="#C4C5D7"/>
</svg>
