<svg width="18" height="19" viewBox="0 0 18 19" fill="none" xmlns="http://www.w3.org/2000/svg">
<path d="M11.8418 2.97042C11.7167 2.92493 11.5788 2.93097 11.4582 2.98722C11.3376 3.04346 11.2443 3.14531 11.1988 3.27034C11.1533 3.39538 11.1593 3.53337 11.2156 3.65395C11.2718 3.77453 11.3737 3.86783 11.4987 3.91333C13.0897 4.49124 14.4262 5.61137 15.2732 7.07689C16.1203 8.54241 16.4238 10.2596 16.1304 11.9267C15.837 13.5938 14.9655 15.1041 13.6689 16.1924C12.3724 17.2806 10.7339 17.8772 9.04114 17.8772C7.34843 17.8772 5.70987 17.2806 4.41335 16.1924C3.11683 15.1041 2.24531 13.5938 1.95191 11.9267C1.65851 10.2596 1.962 8.54241 2.80906 7.07689C3.65613 5.61137 4.99257 4.49124 6.58357 3.91333C6.7086 3.86783 6.81045 3.77453 6.86669 3.65395C6.92294 3.53337 6.92898 3.39538 6.88349 3.27034C6.838 3.14531 6.7447 3.04346 6.62412 2.98722C6.50353 2.93097 6.36555 2.92493 6.24051 2.97042C4.4279 3.62899 2.90535 4.90528 1.94037 6.57503C0.975386 8.24479 0.629703 10.2012 0.964053 12.1005C1.2984 13.9999 2.2914 15.7206 3.76857 16.9605C5.24574 18.2003 7.1126 18.88 9.04114 18.88C10.9697 18.88 12.8365 18.2003 14.3137 16.9605C15.7909 15.7206 16.7839 13.9999 17.1182 12.1005C17.4526 10.2012 17.1069 8.24479 16.1419 6.57503C15.1769 4.90528 13.6544 3.62899 11.8418 2.97042V2.97042Z" fill="#C4C5D7"/>
<path d="M9.14153 0.880005H8.94091C8.71931 0.880005 8.53967 1.05964 8.53967 1.28124V7.09918C8.53967 7.32077 8.71931 7.50041 8.94091 7.50041H9.14153C9.36313 7.50041 9.54277 7.32077 9.54277 7.09918V1.28124C9.54277 1.05964 9.36313 0.880005 9.14153 0.880005Z" fill="#C4C5D7"/>
</svg>
