<svg width="18" height="18" viewBox="0 0 18 18" fill="none" xmlns="http://www.w3.org/2000/svg">
<path d="M9 0C7.21997 0 5.47991 0.527841 3.99987 1.51677C2.51983 2.50571 1.36628 3.91131 0.685088 5.55585C0.00389951 7.20039 -0.17433 9.00998 0.172937 10.7558C0.520203 12.5016 1.37737 14.1053 2.63604 15.364C3.89472 16.6226 5.49836 17.4798 7.24419 17.8271C8.99002 18.1743 10.7996 17.9961 12.4442 17.3149C14.0887 16.6337 15.4943 15.4802 16.4832 14.0001C17.4722 12.5201 18 10.78 18 9C18 6.61305 17.0518 4.32387 15.364 2.63604C13.6761 0.948212 11.387 0 9 0ZM9 17C7.41775 17 5.87104 16.5308 4.55544 15.6518C3.23985 14.7727 2.21447 13.5233 1.60897 12.0615C1.00347 10.5997 0.84504 8.99113 1.15372 7.43928C1.4624 5.88743 2.22433 4.46197 3.34315 3.34315C4.46197 2.22433 5.88743 1.4624 7.43928 1.15372C8.99113 0.845036 10.5997 1.00346 12.0615 1.60896C13.5233 2.21447 14.7727 3.23985 15.6518 4.55544C16.5308 5.87103 17 7.41775 17 9C16.9976 11.121 16.154 13.1544 14.6542 14.6542C13.1544 16.154 11.121 16.9976 9 17ZM14 9.5C14 9.56567 13.9871 9.63071 13.962 9.69139C13.9369 9.75207 13.9001 9.8072 13.8536 9.85364C13.8072 9.90008 13.7521 9.9369 13.6914 9.96202C13.6307 9.98713 13.5657 10 13.5 10H8.5C8.43433 10 8.3693 9.98713 8.30862 9.96202C8.24794 9.9369 8.1928 9.90008 8.14637 9.85364C8.09993 9.8072 8.0631 9.75207 8.03799 9.69139C8.01287 9.63071 7.99997 9.56567 8 9.5V3.5C8 3.36739 8.05268 3.24022 8.14645 3.14645C8.24022 3.05268 8.3674 3 8.5 3C8.63261 3 8.75979 3.05268 8.85356 3.14645C8.94733 3.24022 9 3.36739 9 3.5V9H13.5C13.5657 8.99996 13.6307 9.01287 13.6914 9.03798C13.7521 9.0631 13.8072 9.09993 13.8536 9.14636C13.9001 9.1928 13.9369 9.24793 13.962 9.30861C13.9871 9.36929 14 9.43433 14 9.5Z" fill="#C4C5D7"/>
</svg>
